<svg id="Capa_1" enable-background="new 0 0 512 512" height="512" viewBox="0 0 512 512" width="512" xmlns="http://www.w3.org/2000/svg"><g><path d="m402.088 297.021c-6.683-17.081-18.967-33.891-36.517-49.968-2.867-2.626-7.266-2.626-10.133 0-17.55 16.077-29.834 32.887-36.517 49.968-.011.024-.021.048-.03.073-3.122 7.655-7.808 24.026-5.615 36.921 2.801 21.668 18.668 37.45 39.729 40.491v12.339c0 4.142 3.357 7.5 7.5 7.5s7.5-3.358 7.5-7.5v-12.339c21.06-3.041 36.927-18.823 39.729-40.491 2.192-12.895-2.493-29.266-5.615-36.921-.011-.025-.02-.049-.031-.073zm-9.118 34.335c-.037.181-.066.364-.09.549-1.774 14.295-11.426 24.602-24.875 27.387v-63.295c0-4.142-3.357-7.5-7.5-7.5s-7.5 3.358-7.5 7.5v63.295c-13.449-2.785-23.101-13.092-24.875-27.387-.023-.184-.053-.367-.089-.547-1.44-8.81 1.966-21.72 4.67-28.426.04-.094.079-.188.116-.284 5.185-13.335 14.482-26.672 27.678-39.716 13.195 13.043 22.493 26.38 27.678 39.716.037.096.076.19.117.284 2.703 6.705 6.109 19.614 4.67 28.424z"/><path d="m79.716 109.989h142.119c4.143 0 7.5-3.358 7.5-7.5s-3.357-7.5-7.5-7.5h-142.119c-4.143 0-7.5 3.358-7.5 7.5s3.357 7.5 7.5 7.5z"/><path d="m79.716 150.634h142.119c4.143 0 7.5-3.358 7.5-7.5s-3.357-7.5-7.5-7.5h-142.119c-4.143 0-7.5 3.358-7.5 7.5s3.357 7.5 7.5 7.5z"/><path d="m112.103 302.658-32.237-2.616c-4.161-.326-7.748 2.763-8.082 6.869-2.239 27.608 18.399 51.891 46.007 54.131l25.485 2.068v26.766c0 4.142 3.357 7.5 7.5 7.5s7.5-3.358 7.5-7.5v-77.804l25.485-2.068c27.607-2.24 48.246-26.523 46.007-54.131-.335-4.116-3.938-7.201-8.082-6.869l-32.237 2.616c-11.882.964-22.792 5.996-31.173 14.274v-78.24c0-4.142-3.357-7.5-7.5-7.5s-7.5 3.358-7.5 7.5v25.179c-8.381-8.279-19.291-13.31-31.173-14.274l-32.237-2.616c-4.172-.325-7.749 2.772-8.082 6.869-2.239 27.608 18.399 51.891 46.007 54.131l25.485 2.068v57.921c-8.382-8.278-19.292-13.309-31.173-14.274zm6.9 43.434c-16.799-1.363-29.919-14.363-32.074-30.427l23.961 1.944c9.38.761 17.902 5.129 23.997 12.3 4.442 5.227 7.207 11.485 8.085 18.127zm47.661-67.22c6.095-7.171 14.617-11.54 23.997-12.3l23.961-1.944c-2.155 16.064-15.275 29.064-32.074 30.427l-23.969 1.945c.878-6.643 3.643-12.902 8.085-18.128zm-47.661-36.879c-16.799-1.363-29.919-14.363-32.074-30.427l23.961 1.944c17.019 1.38 29.982 14.538 32.082 30.427z"/><path d="m504.5 152.661c4.143 0 7.5-3.358 7.5-7.5v-53.771c0-8.79-7.151-15.941-15.941-15.941h-22.109v-11.796c0-7.46-6.069-13.53-13.53-13.53h-179.698c-9.921 0-18.806 4.51-24.722 11.584-5.916-7.074-14.801-11.584-24.722-11.584h-179.698c-7.46 0-13.529 6.069-13.529 13.53v11.795h-22.11c-8.79 0-15.941 7.152-15.941 15.942v354.545c0 8.791 7.151 15.942 15.941 15.942h480.117c8.79 0 15.941-7.151 15.941-15.942v-265.774c0-4.142-3.357-7.5-7.5-7.5s-7.5 3.358-7.5 7.5v265.773c0 .52-.422.942-.941.942h-232.558v-22.384h196.919c7.461 0 13.53-6.069 13.53-13.529 0-11.387 0-308.533 0-320.514h22.109c.52 0 .941.422.941.941v53.771c.001 4.142 3.358 7.5 7.501 7.5zm-451.449-87.537h178.228c9.496 0 17.222 7.726 17.222 17.222v327.147h-195.45c0-12.688 0-323.78 0-344.369zm-38.051 380.811v-354.545c0-.519.422-.941.941-.941h22.109v320.515c0 7.46 6.069 13.529 13.529 13.529h196.921v22.384h-232.559c-.519-.001-.941-.423-.941-.942zm443.949-36.443h-195.449v-327.147c0-9.496 7.726-17.222 17.222-17.222h178.228v17.825c-.001 7.502-.001 315.668-.001 326.544z"/><path d="m420.993 94.989h-120.976c-9.099 0-16.5 7.402-16.5 16.5v62.406c0 9.098 7.401 16.5 16.5 16.5h120.977c9.099 0 16.5-7.402 16.5-16.5v-62.406c-.001-9.098-7.402-16.5-16.501-16.5zm1.5 78.906c0 .827-.673 1.5-1.5 1.5h-120.976c-.827 0-1.5-.673-1.5-1.5v-62.406c0-.827.673-1.5 1.5-1.5h120.977c.827 0 1.5.673 1.5 1.5v62.406z"/><path d="m429.993 215.598h-138.976c-4.143 0-7.5 3.358-7.5 7.5s3.357 7.5 7.5 7.5h138.977c4.143 0 7.5-3.358 7.5-7.5s-3.358-7.5-7.501-7.5z"/></g></svg>